<svg xmlns="http://www.w3.org/2000/svg" viewBox="0 0 74.28 72.44"><defs><style>.cls-1{fill:#181616;fill-rule:evenodd;}</style></defs><g id="Layer_2" data-name="Layer 2"><g id="Objects"><path class="cls-1" d="M37.14,0A37.14,37.14,0,0,0,25.4,72.38c1.86.34,2.54-.8,2.54-1.79s0-3.22-.06-6.32c-10.33,2.25-12.51-5-12.51-5-1.68-4.29-4.12-5.44-4.12-5.44-3.37-2.3.26-2.25.26-2.25,3.72.26,5.68,3.82,5.68,3.82,3.32,5.68,8.7,4,10.81,3.09a8,8,0,0,1,2.36-5c-8.25-.93-16.92-4.12-16.92-18.35a14.35,14.35,0,0,1,3.83-10,13.31,13.31,0,0,1,.36-9.83s3.12-1,10.21,3.81a35.22,35.22,0,0,1,18.6,0c7.09-4.81,10.2-3.81,10.2-3.81A13.33,13.33,0,0,1,57,25.23a14.34,14.34,0,0,1,3.82,10c0,14.27-8.68,17.41-17,18.32,1.34,1.15,2.52,3.42,2.52,6.88,0,5,0,9,0,10.19,0,1,.67,2.15,2.55,1.79A37.15,37.15,0,0,0,37.14,0Z"/></g></g></svg>