<svg xmlns="http://www.w3.org/2000/svg" viewBox="0 0 63.96 51.98"><defs><style>.cls-1{fill:#231f20;}</style></defs><g id="Layer_2" data-name="Layer 2"><g id="Objects"><path id="LOGO" class="cls-1" d="M56.42,8.22A26.07,26.07,0,0,0,64,6.15,26.8,26.8,0,0,1,57.41,13c0,.56,0,1.13,0,1.69C57.45,32,44.25,52,20.11,52A37.16,37.16,0,0,1,0,46.09a27,27,0,0,0,3.13.18,26.33,26.33,0,0,0,16.3-5.62A13.14,13.14,0,0,1,7.17,31.54a13.3,13.3,0,0,0,5.93-.23A13.12,13.12,0,0,1,2.57,18.45v-.17a13,13,0,0,0,5.94,1.64A13.13,13.13,0,0,1,4.45,2.4,37.25,37.25,0,0,0,31.5,16.11a12.81,12.81,0,0,1-.34-3,13.12,13.12,0,0,1,22.7-9A26.34,26.34,0,0,0,62.19,1,13.16,13.16,0,0,1,56.42,8.22Z"/></g></g></svg>