<svg xmlns="http://www.w3.org/2000/svg" viewBox="0 0 65.32 45.94"><defs><style>.cls-1{fill:#231f20;fill-rule:evenodd;}</style></defs><g id="Layer_2" data-name="Layer 2"><g id="Objects"><path id="LOGO" class="cls-1" d="M64.67,9.91s-.64-4.5-2.6-6.48A9.34,9.34,0,0,0,55.53.66C46.39,0,32.67,0,32.67,0h0S18.93,0,9.79.66A9.34,9.34,0,0,0,3.25,3.43c-2,2-2.6,6.48-2.6,6.48A99.36,99.36,0,0,0,0,20.48v5A99.36,99.36,0,0,0,.65,36s.64,4.5,2.6,6.48C5.73,45.1,9,45,10.45,45.29c5.23.5,22.21.65,22.21.65s13.73,0,22.87-.68a9.3,9.3,0,0,0,6.54-2.77c2-2,2.6-6.48,2.6-6.48a99.36,99.36,0,0,0,.65-10.57v-5A99.36,99.36,0,0,0,64.67,9.91ZM25.91,31.44V13.09L43.56,22.3Z"/></g></g></svg>